<svg width="65" height="57" viewBox="0 0 65 57" fill="none" xmlns="http://www.w3.org/2000/svg">
<path d="M52.2273 28.3636H46.5909V36.8182H38.1364V42.4545H52.2273V28.3636ZM18.4091 19.9091H26.8636V14.2727H12.7727V28.3636H18.4091V19.9091ZM57.8636 3H7.13636C5.64151 3 4.20788 3.59383 3.15085 4.65085C2.09383 5.70788 1.5 7.14151 1.5 8.63636V48.0909C1.5 49.5858 2.09383 51.0194 3.15085 52.0764C4.20788 53.1334 5.64151 53.7273 7.13636 53.7273H57.8636C59.3585 53.7273 60.7921 53.1334 61.8491 52.0764C62.9062 51.0194 63.5 49.5858 63.5 48.0909V8.63636C63.5 7.14151 62.9062 5.70788 61.8491 4.65085C60.7921 3.59383 59.3585 3 57.8636 3ZM57.8636 48.0909H7.13636V8.63636H57.8636V48.0909Z" fill="#03D6F3"/>
</svg>
